<svg width="300" height="300" viewBox="0 0 300 300" fill="none" xmlns="http://www.w3.org/2000/svg">
<rect width="300" height="300" fill="black"/>
<circle cx="194" cy="140" r="38" fill="#004953"/>
<path d="M74.696 164V128.96H86.36C88.696 128.96 90.728 129.408 92.456 130.304C94.216 131.2 95.576 132.464 96.536 134.096C97.496 135.696 97.976 137.584 97.976 139.76C97.976 141.904 97.48 143.792 96.488 145.424C95.528 147.056 94.184 148.32 92.456 149.216C90.728 150.112 88.696 150.56 86.36 150.56H80.696V164H74.696ZM80.696 145.136H86.36C88.024 145.136 89.352 144.656 90.344 143.696C91.368 142.704 91.88 141.392 91.88 139.76C91.88 138.096 91.368 136.784 90.344 135.824C89.352 134.864 88.024 134.384 86.36 134.384H80.696V145.136ZM103.429 164V158.528H112.645V143.024H104.629V137.6H118.405V158.528H126.565V164H103.429ZM115.045 133.184C113.829 133.184 112.869 132.88 112.165 132.272C111.461 131.632 111.109 130.784 111.109 129.728C111.109 128.672 111.461 127.84 112.165 127.232C112.869 126.592 113.829 126.272 115.045 126.272C116.261 126.272 117.221 126.592 117.925 127.232C118.629 127.84 118.981 128.672 118.981 129.728C118.981 130.784 118.629 131.632 117.925 132.272C117.221 132.88 116.261 133.184 115.045 133.184ZM130.291 164L139.507 150.368L130.915 137.6H137.683L141.763 144.08C142.019 144.464 142.243 144.896 142.435 145.376C142.659 145.856 142.835 146.24 142.963 146.528C143.091 146.24 143.267 145.856 143.491 145.376C143.715 144.896 143.939 144.464 144.163 144.08L148.291 137.6H155.059L146.467 150.368L155.635 164H148.819L144.259 156.752C144.003 156.336 143.763 155.888 143.539 155.408C143.315 154.928 143.123 154.544 142.963 154.256C142.835 154.544 142.659 154.928 142.435 155.408C142.211 155.888 141.971 156.336 141.715 156.752L137.059 164H130.291Z" fill="#9CA3AF"/>
<path d="M175.776 164C174.048 164 172.528 163.648 171.216 162.944C169.936 162.24 168.928 161.248 168.192 159.968C167.456 158.656 167.088 157.152 167.088 155.456V134.384H158.64V128.96H173.088V155.456C173.088 156.416 173.36 157.184 173.904 157.76C174.48 158.304 175.248 158.576 176.208 158.576H184.176V164H175.776Z" fill="black"/>
</svg>
